<?xml version="1.0"?>
<!DOCTYPE svg PUBLIC "-//W3C//DTD SVG 1.1//EN" "http://www.w3.org/Graphics/SVG/1.1/DTD/svg11.dtd">
<svg viewBox="240 276 320 310" preserveAspectRatio="xMinYMin meet" version="1.1" xmlns="http://www.w3.org/2000/svg">
<g class="Crystal Oscillator">
<line x1="512" y1="448" x2="412" y2="448" stroke="#000000" stroke-width="3" stroke-linecap="round" fill="none" />
<line x1="412" y1="460" x2="412" y2="436" stroke="#000000" stroke-width="3" stroke-linecap="round" fill="none" />
<line x1="288" y1="448" x2="388" y2="448" stroke="#000000" stroke-width="3" stroke-linecap="round" fill="none" />
<line x1="388" y1="460" x2="388" y2="436" stroke="#000000" stroke-width="3" stroke-linecap="round" fill="none" />
<polyline stroke="#000000" stroke-linecap="round" stroke-linejoin="round" stroke-width="3" fill="none" points="406,435 406,461 394,461 394,435 406,435 " />
<ellipse cx="288" cy="448" rx="4" ry="4" fill="#000000" stroke="none" />
</g>
<g class="Capacitor">
<line x1="288" y1="448" x2="288" y2="476" stroke="#000000" stroke-width="3" stroke-linecap="round" fill="none" />
<line x1="300" y1="476" x2="276" y2="476" stroke="#000000" stroke-width="3" stroke-linecap="round" fill="none" />
<line x1="288" y1="512" x2="288" y2="484" stroke="#000000" stroke-width="3" stroke-linecap="round" fill="none" />
<line x1="300" y1="484" x2="276" y2="484" stroke="#000000" stroke-width="3" stroke-linecap="round" fill="none" />
<ellipse cx="288" cy="448" rx="4" ry="4" fill="#000000" stroke="none" />
<text x="310" y="485" font-family="sans-serif">C1</text>
</g>
<g class="Capacitor">
<line x1="512" y1="448" x2="512" y2="476" stroke="#000000" stroke-width="3" stroke-linecap="round" fill="none" />
<line x1="524" y1="476" x2="500" y2="476" stroke="#000000" stroke-width="3" stroke-linecap="round" fill="none" />
<line x1="512" y1="512" x2="512" y2="484" stroke="#000000" stroke-width="3" stroke-linecap="round" fill="none" />
<line x1="524" y1="484" x2="500" y2="484" stroke="#000000" stroke-width="3" stroke-linecap="round" fill="none" />
<text x="534" y="485" font-family="sans-serif">C2</text>
</g>
<g class="Inverter">
<ellipse cx="288" cy="384" rx="4" ry="4" fill="#000000" stroke="none" />
<ellipse cx="512" cy="384" rx="4" ry="4" fill="#000000" stroke="none" />
<line x1="288" y1="384" x2="376" y2="384" stroke="#000000" stroke-width="3" stroke-linecap="round" fill="none" />
<line x1="430" y1="384" x2="512" y2="384" stroke="#000000" stroke-width="3" stroke-linecap="round" fill="none" />
<polygon fill="#FFFFFF" stroke="none" points="376,360 376,408 418,384 " />
<ellipse cx="424" cy="384" rx="6" ry="6" fill="#FFFFFF" stroke="none" />
<polygon stroke="#000000" stroke-width="3" fill="none" points="376,360 376,408 418,384 " />
<ellipse cx="424" cy="384" rx="6" ry="6" stroke="#000000" stroke-width="3" fill="none" />
</g>
<g class="Ground">
<line x1="288" y1="512" x2="288" y2="544" stroke="#000000" stroke-width="3" stroke-linecap="round" fill="none" />
<line x1="298" y1="544" x2="278" y2="544" stroke="#000000" stroke-width="3" stroke-linecap="round" fill="none" />
<line x1="294" y1="549" x2="282" y2="549" stroke="#000000" stroke-width="3" stroke-linecap="round" fill="none" />
<line x1="290" y1="554" x2="286" y2="554" stroke="#000000" stroke-width="3" stroke-linecap="round" fill="none" />
</g>
<g class="Wire">
<line x1="288" y1="384" x2="288" y2="448" stroke="#000000" stroke-width="1.5" stroke-linecap="round" fill="none" />
<ellipse cx="288" cy="384" rx="4" ry="4" fill="#000000" stroke="none" />
<ellipse cx="288" cy="448" rx="4" ry="4" fill="#000000" stroke="none" />
</g>
<g class="Ground">
<line x1="512" y1="512" x2="512" y2="544" stroke="#000000" stroke-width="3" stroke-linecap="round" fill="none" />
<line x1="522" y1="544" x2="502" y2="544" stroke="#000000" stroke-width="3" stroke-linecap="round" fill="none" />
<line x1="518" y1="549" x2="506" y2="549" stroke="#000000" stroke-width="3" stroke-linecap="round" fill="none" />
<line x1="514" y1="554" x2="510" y2="554" stroke="#000000" stroke-width="3" stroke-linecap="round" fill="none" />
</g>
<g class="Resistor">
<line x1="512" y1="384" x2="512" y2="400" stroke="#000000" stroke-width="3" stroke-linecap="round" fill="none" />
<line x1="512" y1="432" x2="512" y2="448" stroke="#000000" stroke-width="3" stroke-linecap="round" fill="none" />
<polyline stroke="#000000" stroke-linecap="round" stroke-linejoin="round" stroke-width="3" fill="none" points="512,400 520,402.6667 512,405.3333 504,408 512,410.6667 " />
<polyline stroke="#000000" stroke-linecap="round" stroke-linejoin="round" stroke-width="3" fill="none" points="512,410.6667 520,413.3333 512,416 504,418.6667 512,421.3333 " />
<polyline stroke="#000000" stroke-linecap="round" stroke-linejoin="round" stroke-width="3" fill="none" points="512,421.3333 520,424 512,426.6667 504,429.3333 512,432 " />
<text x="527" y="421" font-family="sans-serif">R1</text>
<ellipse cx="512" cy="384" rx="4" ry="4" fill="#000000" stroke="none" />
</g>
<g class="Resistor">
<line x1="288" y1="320" x2="384" y2="320" stroke="#000000" stroke-width="3" stroke-linecap="round" fill="none" />
<line x1="416" y1="320" x2="512" y2="320" stroke="#000000" stroke-width="3" stroke-linecap="round" fill="none" />
<polyline stroke="#000000" stroke-linecap="round" stroke-linejoin="round" stroke-width="3" fill="none" points="384,320 386.6667,312 389.3333,320 392,328 394.6667,320 " />
<polyline stroke="#000000" stroke-linecap="round" stroke-linejoin="round" stroke-width="3" fill="none" points="394.6667,320 397.3333,312 400,320 402.6667,328 405.3333,320 " />
<polyline stroke="#000000" stroke-linecap="round" stroke-linejoin="round" stroke-width="3" fill="none" points="405.3333,320 408,312 410.6667,320 413.3333,328 416,320 " />
<text x="390" y="305" font-family="sans-serif">R2</text>
</g>
<g class="Wire">
<line x1="288" y1="384" x2="288" y2="320" stroke="#000000" stroke-width="1.5" stroke-linecap="round" fill="none" />
<ellipse cx="288" cy="384" rx="4" ry="4" fill="#000000" stroke="none" />
</g>
<g class="Wire">
<line x1="512" y1="384" x2="512" y2="320" stroke="#000000" stroke-width="1.5" stroke-linecap="round" fill="none" />
<ellipse cx="512" cy="384" rx="4" ry="4" fill="#000000" stroke="none" />
</g>
</svg>
